<svg xmlns="http://www.w3.org/2000/svg" viewBox="-0.5 -4.5 73 73">
  <!-- The Peskas mark with a darker tail, which stays visible at
       16px; the browser's own colour scheme picks the palette, as the tab sits in its chrome. -->
  <style>
    .c1 { fill: #5aa8af }
    .c2 { fill: #2f8f97 }
    .c3 { fill: #006d77 }
    .c4 { fill: #0b2233 }
    .eye { fill: #d96c50 }
    @media (prefers-color-scheme: dark) {
      .c1 { fill: #5aa8af }
      .c2 { fill: #7fbfc5 }
      .c3 { fill: #b5e0e3 }
      .c4 { fill: #ffffff }
      .eye { fill: #e69f8d }
    }
  </style>
  <path class="c1" d="M20 27.70l3.72 2.15v4.3l-3.72 2.15-3.72-2.15v-4.3zM16 20.77l3.72 2.15v4.3l-3.72 2.15-3.72-2.15v-4.3zM16 34.63l3.72 2.15v4.3l-3.72 2.15-3.72-2.15v-4.3zM8 20.77l3.72 2.15v4.3l-3.72 2.15-3.72-2.15v-4.3zM8 34.63l3.72 2.15v4.3l-3.72 2.15-3.72-2.15v-4.3zM12 13.84l3.72 2.15v4.3l-3.72 2.15-3.72-2.15v-4.3zM12 41.56l3.72 2.15v4.3l-3.72 2.15-3.72-2.15v-4.3zM4 13.84l3.72 2.15v4.3l-3.72 2.15-3.72-2.15v-4.3zM4 41.56l3.72 2.15v4.3l-3.72 2.15-3.72-2.15v-4.3zM12 27.70l3.72 2.15v4.3l-3.72 2.15-3.72-2.15v-4.3z"/>
  <path class="c2" d="M28 27.70l3.72 2.15v4.3l-3.72 2.15-3.72-2.15v-4.3zM36 27.70l3.72 2.15v4.3l-3.72 2.15-3.72-2.15v-4.3zM32 20.77l3.72 2.15v4.3l-3.72 2.15-3.72-2.15v-4.3zM32 34.63l3.72 2.15v4.3l-3.72 2.15-3.72-2.15v-4.3z"/>
  <path class="c3" d="M44 27.70l3.72 2.15v4.3l-3.72 2.15-3.72-2.15v-4.3zM52 27.70l3.72 2.15v4.3l-3.72 2.15-3.72-2.15v-4.3zM40 20.77l3.72 2.15v4.3l-3.72 2.15-3.72-2.15v-4.3zM48 20.77l3.72 2.15v4.3l-3.72 2.15-3.72-2.15v-4.3zM40 34.63l3.72 2.15v4.3l-3.72 2.15-3.72-2.15v-4.3zM48 34.63l3.72 2.15v4.3l-3.72 2.15-3.72-2.15v-4.3zM56 34.63l3.72 2.15v4.3l-3.72 2.15-3.72-2.15v-4.3zM44 13.84l3.72 2.15v4.3l-3.72 2.15-3.72-2.15v-4.3zM52 13.84l3.72 2.15v4.3l-3.72 2.15-3.72-2.15v-4.3zM44 41.56l3.72 2.15v4.3l-3.72 2.15-3.72-2.15v-4.3zM52 41.56l3.72 2.15v4.3l-3.72 2.15-3.72-2.15v-4.3z"/>
  <path class="c4" d="M60 27.70l3.72 2.15v4.3l-3.72 2.15-3.72-2.15v-4.3zM68 27.70l3.72 2.15v4.3l-3.72 2.15-3.72-2.15v-4.3zM64 20.77l3.72 2.15v4.3l-3.72 2.15-3.72-2.15v-4.3zM64 34.63l3.72 2.15v4.3l-3.72 2.15-3.72-2.15v-4.3zM60 13.84l3.72 2.15v4.3l-3.72 2.15-3.72-2.15v-4.3zM60 41.56l3.72 2.15v4.3l-3.72 2.15-3.72-2.15v-4.3z"/>
  <path class="eye" d="M56 20.77l3.72 2.15v4.3l-3.72 2.15-3.72-2.15v-4.3z"/>
</svg>
